# xmcd
# 
# Track frame offsets:
#     150
#     18220
#     31890
#     51035
#     74440
#     99312
#     121892
#     137260
#     150502
#     167417
#     187572
# 
# Disc length: 2844
# 
# Revision: 6
# Processed by: cddbd v1.5.2PL0 Copyright (c) Steve Scherf et al.
# Submitted via: fre:ac v1.0.17
# 
DISCID=730b1a0b
DTITLE=K.D. Lang - Hymns of The 49th Parallel
DYEAR=2004
DGENRE=Crossover
TTITLE0=After the Gold Rush (Young)
TTITLE1=Simple (Lang, Piltch)
TTITLE2=Helpless (Young)
TTITLE3=A Case of You (Mitchell)
TTITLE4=The Valley (Siberry)
TTITLE5=Hallelujah (Cohen)
TTITLE6=One Day I Walk (Cockburn)
TTITLE7=Fallen (Sexsmith)
TTITLE8=Jericho (Mitchell)
TTITLE9=Bird on a Wire (Cohen)
TTITLE10=Love Is Everything (Siberry)
EXTD=YEAR: 2004
EXTT0=
EXTT1=
EXTT2=
EXTT3=
EXTT4=
EXTT5=
EXTT6=
EXTT7=
EXTT8=
EXTT9=
EXTT10=
PLAYORDER=
